# xmcd
#
# Track frame offsets: 
#        150
#        17934
#        37618
#        55010
#        70990
#        92838
#        106386
#        123634
#        142378
#        160102
#        182402
#        201710
#        219322
#        228534
#        240906
#
# Disc length: 3414 seconds
#
# Revision: 1
# Processed by: cddbd v1.4PL0 Copyright (c) Steve Scherf et al.
# Submitted via: ExactAudioCopy v0.90b4
#
DISCID=d30d540f
DTITLE=Brian Burns - Angels and Outlaws
DYEAR=1999
DGENRE=Country
TTITLE0=Welcome To Texas (With Terry Allen)
TTITLE1=Angels and Outlaws
TTITLE2=Temper, Temper
TTITLE3=Fast Trains To Texas
TTITLE4=I Couldn't Lay This Guitar Down
TTITLE5=Don't Tell Mama
TTITLE6=Send Me A Hondy-Tonk Angel
TTITLE7=Gimme A Ride To Heaven
TTITLE8=East India Company (We Be Sailin')
TTITLE9=Borders To Cross, Bridgest To Burn
TTITLE10=Good Night Angelina
TTITLE11=Painted By Memory
TTITLE12=Picasso's Last Words (Drink To Me)
TTITLE13=Angels and Outlaws (Reprise)
TTITLE14=Welcome To Texas (Front Porch Version)
EXTD=
EXTT0=
EXTT1=
EXTT2=
EXTT3=
EXTT4=
EXTT5=
EXTT6=
EXTT7=
EXTT8=
EXTT9=
EXTT10=
EXTT11=
EXTT12=
EXTT13=
EXTT14=
PLAYORDER=
